PathFileType	4	(X/Y/Z)	D:/ViconDB/Teaching_2017/Workshops/171025_A1_Demo01/Demo/171025_Guy_ROM_body_01_unlab.trc
DataRate	CameraRate	NumFrames	NumMarkers	Units	OrigDataRate	OrigDataStartFrame	OrigNumFrames
120.000000	120.000000	4	1	mm	120.000000	16	120
Frame#	Time	Unlabeled_Markers			
		X0	Y0	Z0	
16	0.133333				163.466370	84.004135	96.162437	-34.912346	1842.983765	-26.923107	-178.056808	79.152878	83.228889	129.210556	67.813644	-191.432693	126.746880	85.847290	51.501293	-204.441635	76.953506	27.104958	237.693024	1221.133789	-70.357033	-124.453049	76.181381	42.918194	-116.469353	76.005241	-194.630981	143.243408	1500.735962	-116.779900	179.505905	124.357941	-135.206528	207.937164	79.571907	42.424152	-6.887288	1552.584717	-106.443054	-179.182312	127.337212	-146.397354	-309.619202	866.400513	39.719051	195.807297	332.847809	-94.043564	263.660004	927.271179	35.659298	263.439697	1168.685791	-10.748471	-169.015594	1500.907471	-115.410568	66.291862	1733.715698	-50.740402	-240.516571	1207.740723	-111.485939	-199.525711	412.751526	-92.191071	238.288483	1356.326172	-37.270885	-89.821938	1715.961548	-83.419479	-304.265686	1048.708252	-17.184275	118.235268	1170.888916	-97.882614	-288.249176	919.976318	-15.841397	-294.639893	1167.803589	-57.279682	-186.473373	565.638062	-19.532076	-101.512978	1789.677368	45.163097	182.470291	662.528076	-15.906804	276.250610	873.290527	93.657043	256.709961	888.781921	119.636581	174.769516	549.292480	-13.861533	-0.270111	1373.854126	-134.675949	-116.911339	1156.673950	-115.076317	-258.302368	1362.554199	-56.637535	-11.025739	1484.532227	69.652771	-299.259918	872.943176	79.343178	-162.314453	650.524048	43.461525	-156.641815	1509.045776	2.475173	260.792664	1055.409424	51.180458	-201.717026	1011.651123	-61.364170	25.689060	1795.215820	65.163467	184.727814	981.444153	-20.013546	-137.290436	753.522095	66.890175	-142.341675	1093.849731	88.066025	112.263756	629.679810	49.218670	126.642532	1506.893555	22.845919	-4.482238	1348.717163	113.586899	-262.455750	945.265198	58.189728	209.643738	934.473694	100.235420	118.605957	1090.779419	89.487595																																																																																																																																																																																																																																																																																																																																																																																																																																																																																																																																																																																																															
17	0.141667				163.409515	83.889359	96.152763	-34.909435	1842.955322	-26.654778	-178.129211	79.075928	83.221046	129.168274	67.744316	-191.412796	126.716156	85.770447	51.490608	-204.497681	76.871307	27.098486	237.657608	1221.076294	-70.179710	-124.529617	76.072845	42.889717	-116.492851	75.964722	-194.663666	143.179825	1500.693115	-116.583870	179.459686	124.335167	-135.197784	207.898972	79.498367	42.419701	-6.917941	1552.525146	-106.220398	-179.231644	127.253471	-146.337967	-309.745453	866.419739	40.065964	195.795120	332.817200	-94.006996	263.604492	927.222046	35.798347	263.401459	1168.635132	-10.544783	-169.130692	1500.682251	-115.140579	66.298195	1733.658691	-50.530216	-240.640259	1207.723999	-111.269661	-199.172211	412.537811	-92.444489	238.232452	1356.268311	-37.060215	-89.865227	1715.908936	-83.130569	-304.414490	1048.715576	-16.888813	118.233185	1170.863647	-97.744873	-288.392151	919.927429	-15.537675	-294.727417	1167.763672	-56.984695	-186.495544	565.565002	-19.505753	-101.485046	1789.619019	45.448524	182.525726	662.517395	-15.845838	276.178558	873.230103	93.789162	256.639099	888.705078	119.808624	174.801453	549.279236	-13.792164	-0.329541	1373.833252	-134.482376	-116.918297	1156.641846	-114.947441	-258.665710	1362.150024	-56.626282	-11.118195	1484.415405	69.827759	-299.600372	872.970032	79.754051	-162.347305	650.456726	43.486729	-156.684921	1508.984131	2.679319	260.725372	1055.359497	51.348557	-201.699341	1011.586853	-61.277870	25.789307	1795.174927	65.431297	184.735672	981.407288	-19.887568	-137.354858	753.429993	66.937386	-142.356277	1093.750488	88.172142	112.242294	629.650330	49.279888	126.461174	1506.746704	22.957077	-4.560283	1348.604858	113.748283	-262.672211	945.254944	58.475700	209.687714	934.475525	100.474419	117.698898	1090.154053	88.741570																																																																																																																																																																																																																																																																																																																																																																																																																																																																																																																																																																																																															
18	0.150000				163.402069	83.786224	96.183182	-34.870586	1842.885498	-26.357334	-178.152435	78.961723	83.228821	129.090225	67.693947	-191.396851	126.706528	85.680023	51.547394	-204.481766	76.777603	27.131151	237.673828	1220.987061	-69.953079	-124.546509	75.969048	42.873768	-116.544136	75.855179	-194.598801	143.147415	1500.635620	-116.371559	179.467621	124.293869	-135.143738	207.894318	79.421478	42.439537	-6.942170	1552.455566	-105.967583	-179.257874	127.197243	-146.349655	-309.824982	866.364441	40.407070	195.799057	332.753815	-93.924538	263.614044	927.153503	36.036774	263.398865	1168.560669	-10.290023	-169.141464	1500.628418	-114.868355	66.292595	1733.588623	-50.278538	-240.720078	1207.664673	-111.004494	-199.117661	412.448853	-92.440125	238.249115	1356.206055	-36.824539	-89.888588	1715.852783	-82.842865	-304.470398	1048.701172	-16.591145	118.261292	1170.855591	-97.618088	-288.510925	919.925293	-15.236859	-294.788605	1167.704102	-56.689236	-186.495758	565.469055	-19.484491	-101.397758	1789.539429	45.813858	182.583969	662.455750	-15.719675	276.153534	873.143799	94.006966	257.183899	889.159302	120.346130	174.841644	549.197449	-13.694589	-0.319668	1373.819580	-134.285629	-116.882889	1156.619995	-114.836220	-258.730103	1362.041016	-56.422874	-11.174487	1484.297852	70.048363	-299.659576	872.934326	80.107964	-162.314621	650.351685	43.559948	-156.694199	1508.873901	2.938388	260.728821	1055.273193	51.563648	-201.691193	1011.528564	-61.209682	25.854504	1795.108521	65.722313	184.749863	981.368652	-19.725746	-137.323364	753.339417	67.019165	-142.307877	1093.625366	88.298523	112.361641	629.621521	49.394489	126.500153	1506.711304	23.230259	-4.595814	1348.460083	113.955795	-262.726349	945.217102	58.800285	209.705704	934.417358	100.740311	117.828972	1090.142212	88.939560																																																																																																																																																																																																																																																																																																																																																																																																																																																																																																																																																																																																															
19	0.158333				163.455215	83.766724	96.222839	-34.791107	1842.859985	-26.016754	-178.072388	78.977867	83.269615	129.153351	67.763855	-191.384918	126.748550	85.661171	51.574894	-204.427567	76.756187	27.146395	237.686462	1220.928223	-69.736076	-124.476128	75.969147	42.920918	-117.003464	75.658295	-194.238525	143.160980	1500.604614	-116.119865	179.453842	124.213394	-135.126419	207.910538	79.386978	42.452427	-6.947972	1552.516724	-105.727196	-179.197998	127.226105	-146.390182	-309.867310	866.427673	40.741657	195.841019	332.695709	-93.865135	263.601349	927.115112	36.242619	263.433594	1168.509521	-10.037713	-169.112106	1500.661377	-114.643333	66.347298	1733.532104	-49.981419	-240.773605	1207.712769	-110.712440	-199.032867	412.545471	-92.445419	238.256500	1356.150635	-36.585205	-89.867683	1715.905884	-82.560104	-304.510681	1048.734619	-16.279016	118.310852	1170.884277	-97.423851	-288.589630	920.002136	-14.944312	-294.823761	1167.797729	-56.437775	-186.405563	565.502319	-19.439514	-101.265480	1789.516357	46.207600	182.612762	662.384216	-15.643078	276.131042	873.059509	94.214516	257.068146	889.031250	120.517181	174.892502	549.091980	-13.604276	-0.358149	1373.834595	-134.044693	-116.836609	1156.616211	-114.653923	-258.691986	1362.066650	-56.144161	-11.136733	1484.258545	70.298203	-299.636841	872.990845	80.484055	-162.160202	650.345825	43.676590	-156.627792	1508.856079	3.249500	260.743347	1055.207275	51.771263	-201.918442	1011.412109	-61.736263	25.926529	1795.011108	65.992691	184.793259	981.385864	-19.599079	-137.214355	753.339233	67.153099	-142.166275	1093.609863	88.498413	112.535782	629.656494	49.524242	126.541176	1506.634766	23.483627	-4.555356	1348.391357	114.180824	-262.697144	945.318909	59.144848	211.189255	935.773560	102.120834	118.048988	1090.199951	89.233170																																																																																																																																																																																																																																																																																																																																																																																																																																																																																																																																																																																																															
